<?xml version="1.0" encoding="utf-8"?>
<!-- Generator: Adobe Illustrator 16.0.0, SVG Export Plug-In . SVG Version: 6.00 Build 0)  -->
<!DOCTYPE svg PUBLIC "-//W3C//DTD SVG 1.1//EN" "http://www.w3.org/Graphics/SVG/1.1/DTD/svg11.dtd">
<svg version="1.1" id="Layer_1" xmlns="http://www.w3.org/2000/svg" xmlns:xlink="http://www.w3.org/1999/xlink" x="0px" y="0px"
	 width="18px" height="18px" viewBox="0 0 18 18" enable-background="new 0 0 18 18" xml:space="preserve">
<g>
	<path d="M17.788,14.492c0,1.819-1.476,3.296-3.296,3.296h-2.563c-0.365,0-0.742,0-0.742-0.551c0-0.284,0-1.555,0-2.733
		c0-0.823-0.275-1.35-0.595-1.624c1.955-0.218,4.017-0.962,4.017-4.337c0-0.961-0.345-1.75-0.904-2.357
		c0.092-0.229,0.389-1.121-0.092-2.334c-0.732-0.229-2.415,0.904-2.415,0.904C10.499,4.561,9.744,4.458,9,4.458
		c-0.742,0-1.498,0.103-2.195,0.297c0,0-1.683-1.133-2.426-0.904c-0.469,1.213-0.171,2.105-0.08,2.334
		C3.737,6.792,3.394,7.582,3.394,8.542c0,3.365,2.048,4.12,4.004,4.337c-0.252,0.229-0.48,0.606-0.561,1.179
		c-0.504,0.229-1.785,0.618-2.551-0.732c-0.48-0.836-1.351-0.904-1.351-0.904C2.078,12.41,2.878,12.96,2.878,12.96
		c0.572,0.263,0.973,1.281,0.973,1.281c0.515,1.568,2.963,1.042,2.963,1.042c0,0.731,0.011,1.75,0.011,1.954
		c0,0.551-0.388,0.551-0.754,0.551H3.508c-1.819,0-3.295-1.477-3.295-3.296V3.508c0-1.819,1.476-3.295,3.295-3.295h10.984
		c1.82,0,3.296,1.476,3.296,3.295V14.492z M3.394,12.856c-0.069-0.034-0.104-0.093-0.08-0.137c0.022-0.035,0.08-0.046,0.148-0.023
		c0.068,0.034,0.104,0.092,0.08,0.138C3.52,12.868,3.451,12.891,3.394,12.856z M3.714,13.188c-0.058-0.068-0.068-0.148-0.022-0.183
		c0.045-0.046,0.125-0.023,0.183,0.034c0.057,0.068,0.068,0.148,0.022,0.183C3.852,13.269,3.771,13.246,3.714,13.188z M4.241,13.737
		c-0.046,0.035-0.138,0-0.194-0.08c-0.058-0.08-0.058-0.171,0-0.206c0.057-0.045,0.148-0.012,0.194,0.068
		C4.298,13.6,4.298,13.692,4.241,13.737z M4.492,14.184c-0.08-0.069-0.103-0.171-0.046-0.218c0.046-0.057,0.148-0.045,0.229,0.035
		c0.069,0.068,0.092,0.172,0.046,0.218C4.675,14.274,4.573,14.264,4.492,14.184z M5.156,14.572C5.053,14.55,4.984,14.471,5.007,14.4
		c0.024-0.068,0.126-0.102,0.218-0.079c0.103,0.034,0.172,0.114,0.148,0.183C5.351,14.572,5.248,14.607,5.156,14.572z M5.911,14.688
		c-0.114,0.011-0.194-0.047-0.194-0.127c0-0.068,0.08-0.125,0.183-0.125c0.104-0.012,0.194,0.045,0.194,0.125
		C6.094,14.63,6.014,14.688,5.911,14.688z M6.598,14.607c-0.104,0.022-0.195-0.023-0.205-0.092c-0.012-0.08,0.057-0.148,0.16-0.172
		c0.102-0.012,0.193,0.035,0.205,0.104S6.701,14.584,6.598,14.607z"/>
</g>
</svg>
